<?xml version="1.0" encoding="UTF-8" standalone="no"?><!DOCTYPE svg PUBLIC "-//W3C//DTD SVG 1.1//EN" "http://www.w3.org/Graphics/SVG/1.1/DTD/svg11.dtd"><!-- Generated by graphviz version 2.40.1 (20161225.0304)
 --><!-- Title: G Pages: 1 --><svg xmlns="http://www.w3.org/2000/svg" xmlns:xlink="http://www.w3.org/1999/xlink" width="216pt" height="577pt" viewBox="0.00 0.00 216.07 576.80">
<g id="graph0" class="graph" transform="scale(1 1) rotate(0) translate(4 572.8)">
<title>G</title>
<polygon fill="#ffffff" stroke="transparent" points="-4,4 -4,-572.8 212.0748,-572.8 212.0748,4 -4,4"/>
<!-- 0 -->
<g id="node1" class="node">
<title>0</title>
<ellipse fill="none" stroke="#000000" cx="92.7008" cy="-462" rx="57.9023" ry="18"/>
<text text-anchor="middle" x="92.7008" y="-457.8" font-family="Times,serif" font-size="14.00" fill="#000000">manipulates</text>
</g>
<!-- 0&#45;&gt;0 -->
<g id="edge1" class="edge">
<title>0-&gt;0</title>
<path fill="none" stroke="#000000" d="M144.3584,-470.1775C158.0396,-469.7102 168.4016,-466.9844 168.4016,-462 168.4016,-458.3396 162.8133,-455.8972 154.426,-454.6729"/>
<polygon fill="#000000" stroke="#000000" points="154.6176,-451.1767 144.3584,-453.8225 154.0283,-458.1519 154.6176,-451.1767"/>
<text text-anchor="middle" x="188.2382" y="-457.8" font-family="Times,serif" font-size="14.00" fill="#000000">P: 0.70</text>
</g>
<!-- 2 -->
<g id="node3" class="node">
<title>2</title>
<ellipse fill="none" stroke="#000000" cx="70.7008" cy="-373.2" rx="40.5693" ry="18"/>
<text text-anchor="middle" x="70.7008" y="-369" font-family="Times,serif" font-size="14.00" fill="#000000">updates</text>
</g>
<!-- 0&#45;&gt;2 -->
<g id="edge2" class="edge">
<title>0-&gt;2</title>
<path fill="none" stroke="#000000" d="M55.2213,-448.2442C45.65,-442.8355 36.5218,-435.5689 31.0276,-426 24.9008,-415.3294 30.8819,-404.3268 39.8966,-395.1456"/>
<polygon fill="#000000" stroke="#000000" points="42.5087,-397.5037 47.6032,-388.2141 37.8275,-392.2992 42.5087,-397.5037"/>
<text text-anchor="middle" x="51.5374" y="-413.4" font-family="Times,serif" font-size="14.00" fill="#000000">P: 0.30</text>
</g>
<!-- 1 -->
<g id="node2" class="node">
<title>1</title>
<ellipse fill="none" stroke="#000000" cx="57.7008" cy="-195.6" rx="57.9023" ry="18"/>
<text text-anchor="middle" x="57.7008" y="-191.4" font-family="Times,serif" font-size="14.00" fill="#000000">manipulates</text>
</g>
<!-- 3 -->
<g id="node4" class="node">
<title>3</title>
<ellipse fill="none" stroke="#000000" cx="108.7008" cy="-106.8" rx="40.5693" ry="18"/>
<text text-anchor="middle" x="108.7008" y="-102.6" font-family="Times,serif" font-size="14.00" fill="#000000">updates</text>
</g>
<!-- 1&#45;&gt;3 -->
<g id="edge3" class="edge">
<title>1-&gt;3</title>
<path fill="none" stroke="#000000" d="M48.0897,-177.481C43.8208,-166.7943 40.9739,-153.3433 47.0276,-142.8 51.7878,-134.5095 59.2758,-127.9472 67.4164,-122.8242"/>
<polygon fill="#000000" stroke="#000000" points="69.3744,-125.7399 76.4078,-117.8163 65.9683,-119.6245 69.3744,-125.7399"/>
<text text-anchor="middle" x="67.5374" y="-147" font-family="Times,serif" font-size="14.00" fill="#000000">P: 0.71</text>
</g>
<!-- 4 -->
<g id="node5" class="node">
<title>4</title>
<ellipse fill="none" stroke="#000000" cx="108.7008" cy="-284.4" rx="27.8267" ry="18"/>
<text text-anchor="middle" x="108.7008" y="-280.2" font-family="Times,serif" font-size="14.00" fill="#000000">uses</text>
</g>
<!-- 1&#45;&gt;4 -->
<g id="edge4" class="edge">
<title>1-&gt;4</title>
<path fill="none" stroke="#000000" d="M73.5105,-213.1798C78.1204,-218.8193 82.9271,-225.2536 86.7008,-231.6 91.4432,-239.5754 95.6545,-248.7628 99.0906,-257.2151"/>
<polygon fill="#000000" stroke="#000000" points="95.8811,-258.6195 102.7537,-266.6828 102.4095,-256.0936 95.8811,-258.6195"/>
<text text-anchor="middle" x="115.5374" y="-235.8" font-family="Times,serif" font-size="14.00" fill="#000000">P: 0.29</text>
</g>
<!-- 2&#45;&gt;0 -->
<g id="edge5" class="edge">
<title>2-&gt;0</title>
<path fill="none" stroke="#000000" d="M75.1462,-391.1433C78.1863,-403.4141 82.2777,-419.9287 85.7459,-433.9274"/>
<polygon fill="#000000" stroke="#000000" points="82.4466,-435.1651 88.2488,-444.03 89.2412,-433.4817 82.4466,-435.1651"/>
<text text-anchor="middle" x="103.5374" y="-413.4" font-family="Times,serif" font-size="14.00" fill="#000000">P: 0.90</text>
</g>
<!-- 2&#45;&gt;4 -->
<g id="edge6" class="edge">
<title>2-&gt;4</title>
<path fill="none" stroke="#000000" d="M78.3907,-355.23C83.7826,-342.6299 91.0851,-325.565 97.1713,-311.3426"/>
<polygon fill="#000000" stroke="#000000" points="100.4356,-312.6108 101.152,-302.0402 94,-309.8568 100.4356,-312.6108"/>
<text text-anchor="middle" x="113.5374" y="-324.6" font-family="Times,serif" font-size="14.00" fill="#000000">P: 0.10</text>
</g>
<!-- 3&#45;&gt;1 -->
<g id="edge7" class="edge">
<title>3-&gt;1</title>
<path fill="none" stroke="#000000" d="M102.5732,-125.0059C98.6973,-135.4745 93.1973,-148.6745 86.7008,-159.6 84.6371,-163.0707 82.2644,-166.5677 79.7839,-169.9466"/>
<polygon fill="#000000" stroke="#000000" points="76.8825,-167.9762 73.5105,-178.0202 82.41,-172.2712 76.8825,-167.9762"/>
<text text-anchor="middle" x="115.5374" y="-147" font-family="Times,serif" font-size="14.00" fill="#000000">P: 0.52</text>
</g>
<!-- 3&#45;&gt;3 -->
<g id="edge8" class="edge">
<title>3-&gt;3</title>
<path fill="none" stroke="#000000" d="M144.9987,-115.0495C157.3266,-115.0928 167.2354,-112.343 167.2354,-106.8 167.2354,-102.9026 162.3366,-100.3861 155.1426,-99.2505"/>
<polygon fill="#000000" stroke="#000000" points="155.2159,-95.7473 144.9987,-98.5505 154.734,-102.7307 155.2159,-95.7473"/>
<text text-anchor="middle" x="187.072" y="-102.6" font-family="Times,serif" font-size="14.00" fill="#000000">P: 0.45</text>
</g>
<!-- 3&#45;&gt;4 -->
<g id="edge9" class="edge">
<title>3-&gt;4</title>
<path fill="none" stroke="#000000" d="M126.9899,-123.0713C132.1063,-128.7472 137.0026,-135.5316 139.7008,-142.8 156.0344,-186.7995 156.0344,-204.4005 139.7008,-248.4 137.8817,-253.3004 135.0634,-257.9807 131.8521,-262.2497"/>
<polygon fill="#000000" stroke="#000000" points="129.1586,-260.0144 125.3519,-269.9018 134.4936,-264.5464 129.1586,-260.0144"/>
<text text-anchor="middle" x="172.5374" y="-191.4" font-family="Times,serif" font-size="14.00" fill="#000000">P: 0.02</text>
</g>
<!-- 5 -->
<g id="node6" class="node">
<title>5</title>
<polygon fill="none" stroke="#000000" points="108.7008,-36 22.4025,-18 108.7008,0 194.9991,-18 108.7008,-36"/>
<text text-anchor="middle" x="108.7008" y="-13.8" font-family="Times,serif" font-size="14.00" fill="#000000">TERMINAL</text>
</g>
<!-- 3&#45;&gt;5 -->
<g id="edge10" class="edge">
<title>3-&gt;5</title>
<path fill="none" stroke="#000000" d="M108.7008,-88.4006C108.7008,-76.2949 108.7008,-60.2076 108.7008,-46.4674"/>
<polygon fill="#000000" stroke="#000000" points="112.2009,-46.072 108.7008,-36.072 105.2009,-46.0721 112.2009,-46.072"/>
<text text-anchor="middle" x="128.5374" y="-58.2" font-family="Times,serif" font-size="14.00" fill="#000000">P: 0.02</text>
</g>
<!-- 4&#45;&gt;0 -->
<g id="edge11" class="edge">
<title>4-&gt;0</title>
<path fill="none" stroke="#000000" d="M122.7036,-300.1227C127.1146,-306.0569 131.4267,-313.1385 133.7008,-320.4 147.7497,-365.2606 146.843,-383.0649 127.7008,-426 125.9438,-429.9409 123.5576,-433.7038 120.8514,-437.2101"/>
<polygon fill="#000000" stroke="#000000" points="118.0748,-435.0675 114.1012,-444.889 123.3323,-439.6892 118.0748,-435.0675"/>
<text text-anchor="middle" x="163.5374" y="-369" font-family="Times,serif" font-size="14.00" fill="#000000">P: 0.07</text>
</g>
<!-- 4&#45;&gt;1 -->
<g id="edge12" class="edge">
<title>4-&gt;1</title>
<path fill="none" stroke="#000000" d="M82.8933,-277.3915C68.4416,-272 51.6408,-262.9438 43.0276,-248.4 38.4485,-240.6679 39.2458,-231.4538 42.0756,-222.9038"/>
<polygon fill="#000000" stroke="#000000" points="45.3177,-224.2228 45.9559,-213.6472 38.862,-221.5166 45.3177,-224.2228"/>
<text text-anchor="middle" x="63.5374" y="-235.8" font-family="Times,serif" font-size="14.00" fill="#000000">P: 0.93</text>
</g>
<!-- 6 -->
<g id="node7" class="node">
<title>6</title>
<polygon fill="none" stroke="#000000" points="126.5017,-568.8 58.8999,-568.8 58.8999,-532.8 126.5017,-532.8 126.5017,-568.8"/>
<text text-anchor="middle" x="92.7008" y="-546.6" font-family="Times,serif" font-size="14.00" fill="#000000">INITIAL</text>
</g>
<!-- 6&#45;&gt;0 -->
<g id="edge13" class="edge">
<title>6-&gt;0</title>
<path fill="none" stroke="#000000" d="M92.7008,-532.4006C92.7008,-520.2949 92.7008,-504.2076 92.7008,-490.4674"/>
<polygon fill="#000000" stroke="#000000" points="96.2009,-490.072 92.7008,-480.072 89.2009,-490.0721 96.2009,-490.072"/>
<text text-anchor="middle" x="112.5374" y="-502.2" font-family="Times,serif" font-size="14.00" fill="#000000">P: 1.00</text>
</g>
</g>
</svg>