<?xml version="1.0" encoding="UTF-8" standalone="no"?><!DOCTYPE svg PUBLIC "-//W3C//DTD SVG 1.1//EN" "http://www.w3.org/Graphics/SVG/1.1/DTD/svg11.dtd"><!-- Generated by graphviz version 2.40.1 (20161225.0304)
 --><!-- Title: G Pages: 1 --><svg xmlns="http://www.w3.org/2000/svg" xmlns:xlink="http://www.w3.org/1999/xlink" width="309pt" height="488pt" viewBox="0.00 0.00 308.52 488.00">
<g id="graph0" class="graph" transform="scale(1 1) rotate(0) translate(4 484)">
<title>G</title>
<polygon fill="#ffffff" stroke="transparent" points="-4,4 -4,-484 304.523,-484 304.523,4 -4,4"/>
<!-- 0 -->
<g id="node1" class="node">
<title>0</title>
<ellipse fill="none" stroke="#000000" cx="86.149" cy="-373.2" rx="57.9023" ry="18"/>
<text text-anchor="middle" x="86.149" y="-369" font-family="Times,serif" font-size="14.00" fill="#000000">manipulates</text>
</g>
<!-- 0&#45;&gt;0 -->
<g id="edge1" class="edge">
<title>0-&gt;0</title>
<path fill="none" stroke="#000000" d="M137.8066,-381.3775C151.4878,-380.9102 161.8498,-378.1844 161.8498,-373.2 161.8498,-369.5396 156.2615,-367.0972 147.8743,-365.8729"/>
<polygon fill="#000000" stroke="#000000" points="148.0658,-362.3767 137.8066,-365.0225 147.4765,-369.3519 148.0658,-362.3767"/>
<text text-anchor="middle" x="181.6864" y="-369" font-family="Times,serif" font-size="14.00" fill="#000000">P: 0.94</text>
</g>
<!-- 3 -->
<g id="node4" class="node">
<title>3</title>
<ellipse fill="none" stroke="#000000" cx="86.149" cy="-284.4" rx="27.8267" ry="18"/>
<text text-anchor="middle" x="86.149" y="-280.2" font-family="Times,serif" font-size="14.00" fill="#000000">uses</text>
</g>
<!-- 0&#45;&gt;3 -->
<g id="edge2" class="edge">
<title>0-&gt;3</title>
<path fill="none" stroke="#000000" d="M86.149,-354.8006C86.149,-342.6949 86.149,-326.6076 86.149,-312.8674"/>
<polygon fill="#000000" stroke="#000000" points="89.6491,-312.472 86.149,-302.472 82.6491,-312.4721 89.6491,-312.472"/>
<text text-anchor="middle" x="105.9856" y="-324.6" font-family="Times,serif" font-size="14.00" fill="#000000">P: 0.06</text>
</g>
<!-- 1 -->
<g id="node2" class="node">
<title>1</title>
<ellipse fill="none" stroke="#000000" cx="185.149" cy="-195.6" rx="57.9023" ry="18"/>
<text text-anchor="middle" x="185.149" y="-191.4" font-family="Times,serif" font-size="14.00" fill="#000000">manipulates</text>
</g>
<!-- 1&#45;&gt;1 -->
<g id="edge3" class="edge">
<title>1-&gt;1</title>
<path fill="none" stroke="#000000" d="M236.8066,-203.7775C250.4878,-203.3102 260.8498,-200.5844 260.8498,-195.6 260.8498,-191.9396 255.2615,-189.4972 246.8743,-188.2729"/>
<polygon fill="#000000" stroke="#000000" points="247.0658,-184.7767 236.8066,-187.4225 246.4765,-191.7519 247.0658,-184.7767"/>
<text text-anchor="middle" x="280.6864" y="-191.4" font-family="Times,serif" font-size="14.00" fill="#000000">P: 0.89</text>
</g>
<!-- 2 -->
<g id="node3" class="node">
<title>2</title>
<ellipse fill="none" stroke="#000000" cx="86.149" cy="-106.8" rx="40.5693" ry="18"/>
<text text-anchor="middle" x="86.149" y="-102.6" font-family="Times,serif" font-size="14.00" fill="#000000">updates</text>
</g>
<!-- 1&#45;&gt;2 -->
<g id="edge4" class="edge">
<title>1-&gt;2</title>
<path fill="none" stroke="#000000" d="M166.0608,-178.4785C150.7057,-164.7054 128.976,-145.2145 112.0512,-130.0335"/>
<polygon fill="#000000" stroke="#000000" points="113.9589,-127.0429 104.1777,-122.9711 109.2848,-132.2538 113.9589,-127.0429"/>
<text text-anchor="middle" x="163.9856" y="-147" font-family="Times,serif" font-size="14.00" fill="#000000">P: 0.11</text>
</g>
<!-- 2&#45;&gt;2 -->
<g id="edge5" class="edge">
<title>2-&gt;2</title>
<path fill="none" stroke="#000000" d="M122.4469,-115.0495C134.7748,-115.0928 144.6836,-112.343 144.6836,-106.8 144.6836,-102.9026 139.7849,-100.3861 132.5909,-99.2505"/>
<polygon fill="#000000" stroke="#000000" points="132.6641,-95.7473 122.4469,-98.5505 132.1822,-102.7307 132.6641,-95.7473"/>
<text text-anchor="middle" x="164.5202" y="-102.6" font-family="Times,serif" font-size="14.00" fill="#000000">P: 0.91</text>
</g>
<!-- 2&#45;&gt;3 -->
<g id="edge6" class="edge">
<title>2-&gt;3</title>
<path fill="none" stroke="#000000" d="M83.6558,-124.7983C81.8085,-139.0819 79.4497,-159.5754 78.4758,-177.6 77.6126,-193.5767 77.6126,-197.6233 78.4758,-213.6 79.2367,-227.6817 80.8428,-243.2703 82.3899,-256.2275"/>
<polygon fill="#000000" stroke="#000000" points="78.9478,-256.9104 83.6558,-266.4017 85.8943,-256.046 78.9478,-256.9104"/>
<text text-anchor="middle" x="98.9856" y="-191.4" font-family="Times,serif" font-size="14.00" fill="#000000">P: 0.08</text>
</g>
<!-- 4 -->
<g id="node5" class="node">
<title>4</title>
<polygon fill="none" stroke="#000000" points="86.149,-36 -.1493,-18 86.149,0 172.4473,-18 86.149,-36"/>
<text text-anchor="middle" x="86.149" y="-13.8" font-family="Times,serif" font-size="14.00" fill="#000000">TERMINAL</text>
</g>
<!-- 2&#45;&gt;4 -->
<g id="edge7" class="edge">
<title>2-&gt;4</title>
<path fill="none" stroke="#000000" d="M86.149,-88.4006C86.149,-76.2949 86.149,-60.2076 86.149,-46.4674"/>
<polygon fill="#000000" stroke="#000000" points="89.6491,-46.072 86.149,-36.072 82.6491,-46.0721 89.6491,-46.072"/>
<text text-anchor="middle" x="105.9856" y="-58.2" font-family="Times,serif" font-size="14.00" fill="#000000">P: 0.01</text>
</g>
<!-- 3&#45;&gt;1 -->
<g id="edge8" class="edge">
<title>3-&gt;1</title>
<path fill="none" stroke="#000000" d="M102.4969,-269.7365C117.6418,-256.152 140.4494,-235.6942 158.272,-219.7079"/>
<polygon fill="#000000" stroke="#000000" points="160.9573,-222.0009 166.0645,-212.7182 156.2833,-216.79 160.9573,-222.0009"/>
<text text-anchor="middle" x="163.9856" y="-235.8" font-family="Times,serif" font-size="14.00" fill="#000000">P: 1.00</text>
</g>
<!-- 5 -->
<g id="node6" class="node">
<title>5</title>
<polygon fill="none" stroke="#000000" points="119.9499,-480 52.3482,-480 52.3482,-444 119.9499,-444 119.9499,-480"/>
<text text-anchor="middle" x="86.149" y="-457.8" font-family="Times,serif" font-size="14.00" fill="#000000">INITIAL</text>
</g>
<!-- 5&#45;&gt;0 -->
<g id="edge9" class="edge">
<title>5-&gt;0</title>
<path fill="none" stroke="#000000" d="M86.149,-443.6006C86.149,-431.4949 86.149,-415.4076 86.149,-401.6674"/>
<polygon fill="#000000" stroke="#000000" points="89.6491,-401.272 86.149,-391.272 82.6491,-401.2721 89.6491,-401.272"/>
<text text-anchor="middle" x="105.9856" y="-413.4" font-family="Times,serif" font-size="14.00" fill="#000000">P: 1.00</text>
</g>
</g>
</svg>